<?xml version="1.0" encoding="utf-8"?>
<!-- Generator: Adobe Illustrator 27.1.1, SVG Export Plug-In . SVG Version: 6.00 Build 0)  -->
<svg version="1.1" id="Camada_1" xmlns="http://www.w3.org/2000/svg" xmlns:xlink="http://www.w3.org/1999/xlink" x="0px" y="0px"
	 viewBox="0 0 426.7 63.2" style="enable-background:new 0 0 426.7 63.2;" xml:space="preserve">
<style type="text/css">
	.st0{fill:#FFFFFF;}
	.st1{fill:#6847FF;}
</style>
<path class="st0" d="M-2682.2,835.2h-34.2c-1,0-1.9,0.5-2.6,1.1l-8.5,13.1c-0.5,0.5-1.1,0.8-1.8,0.8h-6.5v47.5h-22.4v-80h21.6v17.4
	h6.1c0.6,0,1.4-0.3,1.9-0.8l9.9-15.4c0.6-0.8,1.8-1.3,2.9-1.3h45L-2682.2,835.2z"/>
<path class="st0" d="M-2578.3,785.8h22.4v112h-22.4V785.8z"/>
<path class="st0" d="M-2519.2,898.1c-15.2,0-25.4-10.2-25.4-25.4v-29.4c0-15.2,10.2-25.4,25.4-25.4h48.8c15.2,0,25.4,10.2,25.4,25.4
	v29.4c0,15.2-10.2,25.4-25.4,25.4H-2519.2z M-2467.4,872.2v-28.5c0-5.1-3.4-8.5-8.5-8.5h-37.9c-5.1,0-8.5,3.4-8.5,8.5v28.5
	c0,5.1,3.4,8.5,8.5,8.5h37.9C-2470.7,880.7-2467.4,877.3-2467.4,872.2z"/>
<path class="st0" d="M-2359.4,817.8h-56l-11.5,17.4h60.5c5.1,0,8.5,3.4,8.5,8.5v0.6h-52c-15.2,0-24.6,10.2-24.6,25.9v2.1
	c0,15.2,10.2,25.4,25.4,25.4h29.7c1.1,0,2.2-0.5,2.9-1.3l10.1-15.4c0.5-0.5,1.3-0.8,1.9-0.8h7.3v17.4h22.4v-54.1
	C-2334.8,828-2344.2,817.8-2359.4,817.8z M-2357.9,865.3h-6c-0.6,0-1.3,0.3-1.8,0.8l-8.7,13.1c-0.6,0.7-1.6,1.1-2.6,1.1h-27.3
	c-4.8,0-8-3.2-8-8v-2.1c0-5.1,3.2-8.5,8.3-8.5h45.9V865.3z"/>
<path class="st0" d="M-2246.1,785.8v32h-52.8c-15.2,0-24.6,10.2-24.6,25.9v28.6c0,15.2,10.2,25.4,25.4,25.4h30.1
	c1.1,0,2.2-0.5,2.9-1.3l10.2-15.4c0.5-0.5,1.3-0.8,1.9-0.8h7.8v17.4h21.6v-112H-2246.1z M-2246.1,865.3h-6.1c-0.6,0-1.3,0.3-1.8,0.8
	l-8.6,13.1c-0.6,0.7-1.6,1.1-2.6,1.1h-28c-4.8,0-8-3.2-8-8v-28.6c0-5.1,3.2-8.5,8.3-8.5h46.7V865.3z"/>
<path class="st0" d="M-2660.2,880.5v-14.1h70.7v-48.7h-65c-2.1,0-4.3,0.9-5.6,2.6l-7.9,12l-7.5,11.3h-7.1v54.2h81.7l11.4-17.4
	H-2660.2z M-2660.2,845.3l6.7-10.2h41.5V849h-39.5l-8.8,13.4V845.3z"/>
<g>
	<polygon class="st1" points="-2812.2,768.4 -2812.2,933.2 -3006.6,933.2 -3006.6,884.8 -2976.9,884.8 -2976.9,903.5 -2841.9,903.5 
		-2841.9,798.1 -2976.9,798.1 -2976.9,821.9 -2966,811 -2952.8,824.2 -2992,863.4 -3031.1,824.2 -3017.9,811 -3006.6,822.2 
		-3006.6,768.4 	"/>
</g>
<g>
	<path class="st1" d="M422,63.2h-97.3c-2.6,0-4.7-2.1-4.7-4.7V26.2c0-2.6,2.1-4.7,4.7-4.7H422c2.6,0,4.7,2.1,4.7,4.7v32.3
		C426.7,61.1,424.6,63.2,422,63.2z"/>
	<g>
		<path class="st0" d="M336.1,39.9l2.7-3c0.2-0.2,0.4-0.3,0.7-0.3h13.7l-2.7,4.2H338l-1.8,2v6.7c0,1.2,0.8,2,2,2h14v4.2h-15.3
			c-3.6,0-6.1-2.4-6.1-6.1v-9.5c1.8,0,2.9,0,4.5,0C335.6,40.2,335.9,40.1,336.1,39.9z"/>
		<path class="st0" d="M355.6,29h5.3v26.7h-5.3V29z"/>
		<path class="st0" d="M382.8,48V36.6h5.3v19.1H383v-4.2h-1.4c-0.1,0-0.3,0.1-0.4,0.2l-3,3.7c-0.2,0.2-0.4,0.3-0.6,0.3h-6.7
			c-3.6,0-6.1-2.4-6.1-6.1v-13h5.3v13c0,1.1,0.8,1.9,1.9,1.9h6.2c0.2,0,0.5-0.1,0.6-0.3l2.6-3.1c0.1-0.1,0.2-0.2,0.4-0.2H382.8z"/>
		<path class="st0" d="M397.1,29v11.8h1.4c0.2,0,0.3-0.1,0.5-0.2l3.1-3.7c0.2-0.2,0.4-0.3,0.7-0.3h6.9c3.6,0,6.1,2.4,6.1,6.1v6.8
			c0,3.7-2.2,6.2-5.9,6.2H392V29H397.1z M408.5,40.8h-6.4c-0.2,0-0.5,0.1-0.6,0.3l-2.7,3.1c-0.1,0.1-0.3,0.2-0.4,0.2h-1.1v10
			l1.9-2.8h9.2c1.2,0,2-0.8,2-2v-6.8C410.4,41.5,409.7,40.8,408.5,40.8z"/>
	</g>
	<path class="st0" d="M42.3,27.5H23.3c-0.5,0-1.1,0.3-1.4,0.6l-4.8,7.3c-0.3,0.3-0.6,0.4-1,0.4h-3.6v26.5H0V17.8h12v9.7h3.4
		c0.4,0,0.8-0.2,1.1-0.4l5.5-8.6c0.4-0.4,1-0.7,1.6-0.7h25.1L42.3,27.5z"/>
	<path class="st0" d="M100.3,0h12.5v62.4h-12.5V0z"/>
	<path class="st0" d="M222.9,17.8h-31.2l-6.4,9.7h33.7c2.9,0,4.7,1.9,4.7,4.7v0.4h-29c-8.5,0-13.7,5.7-13.7,14.4v1.2
		c0,8.5,5.7,14.2,14.2,14.2h16.6c0.6,0,1.2-0.3,1.6-0.7l5.6-8.6c0.3-0.3,0.7-0.4,1.1-0.4h4.1v9.7h12.5V32.3
		C236.6,23.5,231.3,17.8,222.9,17.8z M223.7,44.3h-3.3c-0.4,0-0.7,0.2-1,0.4l-4.8,7.3c-0.4,0.4-0.9,0.6-1.4,0.6h-15.2
		c-2.7,0-4.5-1.8-4.5-4.5v-1.2c0-2.9,1.8-4.7,4.6-4.7h25.6V44.3z"/>
	<path class="st0" d="M286,0v17.8h-29.4c-8.5,0-13.7,5.7-13.7,14.4v16c0,8.5,5.7,14.2,14.2,14.2h16.8c0.6,0,1.2-0.3,1.6-0.7l5.7-8.6
		c0.3-0.3,0.7-0.4,1.1-0.4h4.3v9.7h12V0H286z M286,44.3h-3.4c-0.4,0-0.7,0.2-1,0.4l-4.8,7.3c-0.4,0.4-0.9,0.6-1.4,0.6h-15.6
		c-2.7,0-4.5-1.8-4.5-4.5v-16c0-2.9,1.8-4.7,4.6-4.7h26V44.3z"/>
	<path class="st0" d="M54.7,52.8v-7.9H94V17.8H57.8c-1.2,0-2.4,0.5-3.1,1.5l-4.4,6.7l-4.2,6.3h-4v30.2h45.5l6.3-9.7H54.7z
		 M54.7,33.2l3.8-5.7h23.2v7.7h-22l-4.9,7.5V33.2z"/>
	<g>
		<polygon class="st1" points="130.2,49.3 122.2,49.3 122.2,62.4 174.8,62.4 174.8,17.8 122.2,17.8 122.2,32.4 119.1,29.3 
			115.5,32.9 122.5,39.9 126.1,43.5 136.7,32.9 133.1,29.3 130.2,32.3 130.2,25.9 166.7,25.9 166.7,54.4 130.2,54.4 		"/>
	</g>
</g>
</svg>
